<svg id="Layer_1" height="512" viewBox="0 0 512 512" width="512" xmlns="http://www.w3.org/2000/svg"><g fill="rgb(0,0,0)"><path d="m256 410.5c-85.191 0-154.5-69.309-154.5-154.5s69.309-154.5 154.5-154.5 154.5 69.309 154.5 154.5-69.309 154.5-154.5 154.5zm0-300c-80.229 0-145.5 65.271-145.5 145.5s65.271 145.5 145.5 145.5 145.5-65.271 145.5-145.5-65.271-145.5-145.5-145.5z"/><path d="m256.001 348.73c-10.752 0-19.5-8.748-19.5-19.5v-53.73h-53.73c-10.752 0-19.5-8.748-19.5-19.5s8.748-19.5 19.5-19.5h53.73v-53.73c0-10.752 8.748-19.5 19.5-19.5s19.5 8.748 19.5 19.5v53.73h53.729c10.752 0 19.5 8.748 19.5 19.5s-8.748 19.5-19.5 19.5h-53.729v53.73c0 10.752-8.748 19.5-19.5 19.5zm-73.23-103.23c-5.79 0-10.5 4.71-10.5 10.5s4.71 10.5 10.5 10.5h58.23c2.485 0 4.5 2.015 4.5 4.5v58.23c0 5.79 4.71 10.5 10.5 10.5s10.5-4.71 10.5-10.5v-58.23c0-2.485 2.015-4.5 4.5-4.5h58.229c5.79 0 10.5-4.71 10.5-10.5s-4.71-10.5-10.5-10.5h-58.229c-2.485 0-4.5-2.015-4.5-4.5v-58.23c0-5.79-4.71-10.5-10.5-10.5s-10.5 4.71-10.5 10.5v58.23c0 2.485-2.015 4.5-4.5 4.5z"/></g></svg>